# xmcd CD database file
#
# Track frame offsets:
#	150
#	21152
#	42182
#
# Disc length: 842 seconds
#
# Revision: 7
# Processed by: cddbd v1.5.1PL0 Copyright (c) Steve Scherf et al.
# Submitted via: CDex 1.51
#
DISCID=1b034803
DTITLE=西田ひかる - AS PURE AS…
DYEAR=1999
DGENRE=JPop
TTITLE0=AS PURE AS…
TTITLE1=AS PURE AS… [Premier Mix]
TTITLE2=AS PURE AS… [Backing Track]
EXTD=submitted by the staff at http://tlem.org YEAR: 1999
EXTT0=
EXTT1=
EXTT2=
PLAYORDER=
